<svg width="215" height="89" viewBox="0 0 215 89" fill="none" xmlns="http://www.w3.org/2000/svg">
<path d="M106.876 32.4843H109.162V50.7436C109.162 51.278 109.221 51.6837 109.34 51.9608C109.459 52.238 109.696 52.426 110.053 52.525C110.409 52.6239 110.934 52.6734 111.626 52.6734C111.824 52.6734 112.161 52.6734 112.636 52.6734C113.111 52.6734 113.655 52.6734 114.269 52.6734C114.902 52.6734 115.536 52.6734 116.169 52.6734C116.802 52.6734 117.376 52.6734 117.891 52.6734C118.406 52.6734 118.782 52.6734 119.019 52.6734C119.633 52.6734 120.088 52.5645 120.385 52.3468C120.702 52.1291 120.919 51.7134 121.038 51.0998C121.177 50.4862 121.285 49.6054 121.365 48.4574C121.642 48.6554 121.988 48.8434 122.404 49.0215C122.839 49.1997 123.225 49.3283 123.562 49.4075C123.423 50.7732 123.215 51.8619 122.938 52.6734C122.681 53.4651 122.255 54.0292 121.662 54.3657C121.068 54.7022 120.217 54.8705 119.108 54.8705C118.93 54.8705 118.584 54.8705 118.069 54.8705C117.574 54.8705 116.99 54.8705 116.317 54.8705C115.644 54.8705 114.971 54.8705 114.298 54.8705C113.625 54.8705 113.032 54.8705 112.517 54.8705C112.022 54.8705 111.696 54.8705 111.537 54.8705C110.33 54.8705 109.38 54.7517 108.687 54.5142C108.014 54.2767 107.539 53.8511 107.262 53.2375C107.005 52.6437 106.876 51.8025 106.876 50.7139V32.4843ZM117.594 28.2386L119.524 30.02C118.119 30.5544 116.555 31.0591 114.833 31.5342C113.131 31.9894 111.32 32.415 109.4 32.8108C107.499 33.2067 105.56 33.563 103.58 33.8797C101.621 34.1766 99.7009 34.4537 97.8205 34.711C97.7809 34.5131 97.7216 34.3052 97.6424 34.0875C97.583 33.85 97.5038 33.6125 97.4049 33.3749C97.3257 33.1176 97.2366 32.9098 97.1377 32.7515C98.9784 32.5139 100.859 32.2368 102.779 31.9201C104.699 31.6034 106.569 31.2571 108.39 30.881C110.231 30.4851 111.933 30.0695 113.497 29.634C115.08 29.1986 116.446 28.7334 117.594 28.2386ZM97.7018 39.0754L120.504 35.9283L120.83 38.0066L97.9987 41.2131L97.7018 39.0754ZM96.7814 45.8744L122.493 42.5491L122.819 44.6274L97.0783 48.0121L96.7814 45.8744Z" fill="#A78000"/>
<path d="M126.531 41.8366C127.481 41.6584 128.559 41.4506 129.767 41.2131C130.974 40.9558 132.261 40.6886 133.627 40.4115C134.992 40.1146 136.358 39.8276 137.724 39.5505L137.872 41.5397C135.972 41.9751 134.062 42.4106 132.142 42.846C130.222 43.2617 128.52 43.6279 127.035 43.9446L126.531 41.8366ZM127.392 29.8715H136.388V31.9498H127.392V29.8715ZM131.222 35.8689H133.359V52.6437C133.359 53.2771 133.28 53.762 133.122 54.0985C132.983 54.4548 132.706 54.7418 132.291 54.9595C131.895 55.1377 131.36 55.2465 130.687 55.2861C130.034 55.3455 129.252 55.3752 128.342 55.3752C128.302 55.0585 128.213 54.6824 128.075 54.247C127.936 53.8115 127.788 53.4255 127.629 53.0891C128.322 53.1089 128.955 53.1188 129.529 53.1188C130.123 53.1385 130.519 53.1385 130.717 53.1188C130.915 53.1188 131.044 53.0891 131.103 53.0297C131.182 52.9703 131.222 52.8416 131.222 52.6437V35.8689ZM135.913 29.8715H136.447L136.892 29.7231L138.436 30.7622C137.981 31.5738 137.447 32.4051 136.833 33.2562C136.219 34.0875 135.576 34.8891 134.903 35.6611C134.25 36.4132 133.617 37.0862 133.003 37.68C132.884 37.5216 132.736 37.3534 132.558 37.1753C132.399 36.9971 132.231 36.819 132.053 36.6408C131.875 36.4627 131.717 36.3241 131.578 36.2252C132.112 35.7106 132.657 35.1168 133.211 34.4438C133.785 33.751 134.309 33.0484 134.784 32.3358C135.26 31.6034 135.636 30.9404 135.913 30.3466V29.8715ZM137.397 32.0983H153.964V34.1469H137.397V32.0983ZM144.523 28.0605H146.72V33.0484H144.523V28.0605ZM144.167 33.4937L146.274 34.4735C145.78 35.1464 145.245 35.8392 144.671 36.5518C144.117 37.2445 143.553 37.9175 142.979 38.5707C142.405 39.2041 141.861 39.7781 141.346 40.2927L139.565 39.3723C140.059 38.8577 140.594 38.2639 141.168 37.5909C141.742 36.8982 142.296 36.1955 142.83 35.4829C143.365 34.7506 143.81 34.0875 144.167 33.4937ZM137.605 38.9567L139 37.5018C139.733 38.0363 140.465 38.6202 141.198 39.2536C141.93 39.8869 142.613 40.5104 143.246 41.124C143.899 41.7376 144.424 42.2819 144.82 42.757L143.335 44.5087C142.959 43.994 142.444 43.4101 141.791 42.757C141.158 42.1038 140.475 41.4506 139.743 40.7974C139.03 40.1245 138.318 39.5109 137.605 38.9567ZM149.154 36.5221L151.144 37.3534C150.134 38.9369 148.927 40.4412 147.521 41.8663C146.136 43.2914 144.612 44.5878 142.949 45.7556C141.306 46.9235 139.604 47.923 137.843 48.7543C137.684 48.497 137.466 48.21 137.189 47.8933C136.912 47.5568 136.655 47.2797 136.417 47.062C138.1 46.3297 139.743 45.4192 141.346 44.3305C142.969 43.2419 144.454 42.0345 145.799 40.7084C147.145 39.3624 148.264 37.967 149.154 36.5221ZM151.47 42.0741L153.43 43.0242C152.282 44.8056 150.876 46.4781 149.214 48.0418C147.571 49.5857 145.76 50.9811 143.781 52.2281C141.821 53.4552 139.762 54.4944 137.605 55.3455C137.447 55.0684 137.229 54.7517 136.952 54.3954C136.695 54.0589 136.427 53.762 136.15 53.5047C138.248 52.7526 140.267 51.8025 142.207 50.6545C144.147 49.5065 145.918 48.21 147.521 46.7651C149.125 45.3004 150.441 43.7367 151.47 42.0741ZM146.156 49.4966L147.878 48.0715C148.63 48.6455 149.412 49.2789 150.223 49.9716C151.055 50.6446 151.836 51.3176 152.569 51.9905C153.301 52.6635 153.905 53.2573 154.38 53.7719L152.539 55.4346C152.084 54.9001 151.5 54.2866 150.787 53.5938C150.075 52.901 149.313 52.1984 148.501 51.4858C147.69 50.7535 146.908 50.0904 146.156 49.4966Z" fill="#A78000"/>
<path d="M175.697 40.9162H177.716V55.2564H175.697V40.9162ZM162.634 42.6976H164.563V52.2281H162.634V42.6976ZM158.744 45.1915H160.526V52.8515H158.744V45.1915ZM170.591 43.9149H181.784V45.726H172.52V53.0594H170.591V43.9149ZM171.125 29.1293H182.17V37.7987H171.066V36.1361H180.121V30.7919H171.125V29.1293ZM159.724 30.5544H168.186V36.2252H159.724V34.5625H166.285V32.217H159.724V30.5544ZM169.047 32.6327H184.693V34.2656H169.047V32.6327ZM163.584 46.1713H168.631V47.9824H163.584V46.1713ZM181.041 43.9149H183.001V50.8623C183.001 51.3176 182.951 51.6738 182.852 51.9312C182.754 52.1885 182.556 52.3963 182.259 52.5546C181.942 52.713 181.536 52.8021 181.041 52.8219C180.547 52.8416 179.933 52.8515 179.201 52.8515C179.181 52.5942 179.112 52.3171 178.993 52.0202C178.894 51.7035 178.785 51.4165 178.666 51.1592C179.141 51.179 179.557 51.1889 179.913 51.1889C180.289 51.1889 180.547 51.1889 180.685 51.1889C180.923 51.1889 181.041 51.0701 181.041 50.8326V43.9149ZM169.581 39.3129H184.04V43.4101H182.11V41.035H171.452V43.4101H169.581V39.3129ZM162.099 28.0308L164.356 28.387C164.138 28.9413 163.92 29.4856 163.702 30.02C163.485 30.5346 163.287 30.9899 163.109 31.3857L161.298 30.9998C161.456 30.5643 161.604 30.0695 161.743 29.5153C161.901 28.9413 162.02 28.4464 162.099 28.0308ZM158.833 30.5544H160.733V42.846H158.833V30.5544ZM157.289 52.2577C158.279 52.1192 159.407 51.9509 160.674 51.753C161.961 51.5353 163.317 51.3077 164.742 51.0701C166.187 50.8128 167.631 50.5654 169.076 50.3279L169.165 52.2874C167.107 52.6437 165.048 53 162.99 53.3563C160.951 53.7323 159.15 54.0589 157.586 54.336L157.289 52.2577ZM158.833 41.8663H166.404V39.4317H159.783V37.7097H168.275V43.5586H158.833V41.8663Z" fill="#A78000"/>
<path d="M200.429 28.0605H202.685V31.8608H200.429V28.0605ZM189.236 30.6138H214.086V35.4829H211.8V32.6624H191.433V35.8689H189.236V30.6138ZM196.955 36.1361H214.235V38.1253H196.955V36.1361ZM199.39 46.6167H211.919V48.4871H199.39V46.6167ZM199.39 52.3468H211.919V54.2767H199.39V52.3468ZM198.41 41.2725H212.988V55.3455H210.82V43.2023H200.548V55.4346H198.41V41.2725ZM204.348 37.0565L206.783 37.6206C206.505 38.5311 206.218 39.4515 205.922 40.3818C205.625 41.3121 205.348 42.1137 205.09 42.7867L203.131 42.2522C203.289 41.7772 203.447 41.2329 203.606 40.6193C203.764 40.0057 203.913 39.3921 204.051 38.7785C204.19 38.1451 204.289 37.5711 204.348 37.0565ZM194.699 34.236L196.747 34.8891C196.134 36.2549 195.392 37.6008 194.521 38.927C193.67 40.2333 192.749 41.4506 191.759 42.5788C190.79 43.707 189.79 44.7066 188.761 45.5775C188.682 45.4192 188.553 45.2212 188.375 44.9837C188.216 44.7264 188.048 44.479 187.87 44.2415C187.692 43.9841 187.524 43.7763 187.365 43.618C188.355 42.8856 189.295 42.0246 190.186 41.035C191.096 40.0255 191.938 38.9468 192.71 37.7987C193.481 36.6309 194.145 35.4433 194.699 34.236ZM192.175 39.6395L194.135 37.68L194.283 37.7691V55.3752H192.175V39.6395Z" fill="#A78000"/>
<path d="M104.187 75.694C103.771 75.694 103.563 75.4862 103.563 75.0705V63.343C103.563 62.9274 103.771 62.7195 104.187 62.7195H108.819C109.973 62.7195 110.851 63.0197 111.451 63.6201C112.052 64.2205 112.352 65.098 112.352 66.2526V66.8464C112.352 67.9944 112.052 68.8719 111.451 69.4789C110.851 70.0793 109.973 70.3795 108.819 70.3795H104.81V75.0705C104.81 75.4862 104.603 75.694 104.187 75.694ZM104.81 69.1325H108.819C109.63 69.1325 110.214 68.9544 110.57 68.5981C110.927 68.2353 111.105 67.6514 111.105 66.8464V66.2526C111.105 65.4477 110.927 64.8671 110.57 64.5108C110.214 64.1479 109.63 63.9665 108.819 63.9665H104.81V69.1325Z" fill="#B39532"/>
<path d="M118.48 75.694C117.431 75.694 116.656 75.4433 116.154 74.9419C115.653 74.4404 115.402 73.6652 115.402 72.6162C115.402 71.5605 115.653 70.782 116.154 70.2806C116.656 69.7791 117.431 69.5284 118.48 69.5284H122.884C122.858 68.7169 122.663 68.1528 122.3 67.8361C121.944 67.5194 121.33 67.361 120.46 67.361H119.312C118.533 67.361 117.959 67.4369 117.589 67.5887C117.227 67.7338 116.992 67.9878 116.887 68.3507C116.821 68.5486 116.738 68.6938 116.639 68.7862C116.547 68.8719 116.405 68.9148 116.214 68.9148C116.009 68.9148 115.848 68.8587 115.729 68.7466C115.617 68.6278 115.577 68.4695 115.61 68.2715C115.736 67.5194 116.102 66.9718 116.709 66.6287C117.316 66.2856 118.183 66.1141 119.312 66.1141H120.46C121.726 66.1141 122.653 66.411 123.24 67.0048C123.834 67.592 124.131 68.519 124.131 69.7857V75.0705C124.131 75.4862 123.923 75.694 123.508 75.694C123.092 75.694 122.884 75.4862 122.884 75.0705V74.259C122.231 75.2157 121.132 75.694 119.589 75.694H118.48ZM118.48 74.447H119.589C120.182 74.447 120.71 74.3844 121.172 74.259C121.641 74.1337 122.023 73.9258 122.32 73.6355C122.624 73.3452 122.812 72.9527 122.884 72.4578V70.7754H118.48C117.774 70.7754 117.293 70.904 117.035 71.1614C116.778 71.4187 116.649 71.9036 116.649 72.6162C116.649 73.3221 116.778 73.8038 117.035 74.0611C117.293 74.3184 117.774 74.447 118.48 74.447Z" fill="#B39532"/>
<path d="M130.316 75.694C129.96 75.694 129.729 75.5258 129.623 75.1893L126.842 66.9454C126.71 66.5561 126.842 66.2955 127.238 66.1636C127.627 66.0316 127.888 66.1636 128.02 66.5594L130.573 74.071H130.247L132.681 66.6584C132.787 66.3285 133.024 66.1636 133.394 66.1636C133.737 66.1636 133.961 66.3351 134.067 66.6782L136.333 74.0413H136.016L138.689 66.5495C138.834 66.1471 139.101 66.0184 139.49 66.1636C139.879 66.3021 140.005 66.5693 139.866 66.9652L136.828 75.1893C136.703 75.5258 136.462 75.694 136.105 75.694C135.723 75.694 135.482 75.5225 135.383 75.1794L133.206 68.1132H133.404L131.019 75.1893C130.959 75.3674 130.867 75.4961 130.742 75.5753C130.616 75.6544 130.474 75.694 130.316 75.694Z" fill="#B39532"/>
<path d="M149.589 75.694C149.411 75.694 149.263 75.6346 149.144 75.5159C149.025 75.3971 148.966 75.2487 148.966 75.0705V63.343C148.966 63.1649 149.025 63.0164 149.144 62.8977C149.263 62.7789 149.411 62.7195 149.589 62.7195C149.768 62.7195 149.916 62.7789 150.035 62.8977C150.153 63.0164 150.213 63.1649 150.213 63.343V68.4992H158.437V63.343C158.437 63.1649 158.496 63.0164 158.615 62.8977C158.734 62.7789 158.882 62.7195 159.06 62.7195C159.239 62.7195 159.387 62.7789 159.506 62.8977C159.625 63.0164 159.684 63.1649 159.684 63.343V75.0705C159.684 75.2487 159.625 75.3971 159.506 75.5159C159.387 75.6346 159.239 75.694 159.06 75.694C158.882 75.694 158.734 75.6346 158.615 75.5159C158.496 75.3971 158.437 75.2487 158.437 75.0705V69.7461H150.213V75.0705C150.213 75.2487 150.153 75.3971 150.035 75.5159C149.916 75.6346 149.768 75.694 149.589 75.694Z" fill="#B39532"/>
<path d="M166.995 75.694C165.946 75.694 165.17 75.4433 164.669 74.9419C164.167 74.4404 163.917 73.6652 163.917 72.6162C163.917 71.5605 164.167 70.782 164.669 70.2806C165.17 69.7791 165.946 69.5284 166.995 69.5284H171.399C171.372 68.7169 171.178 68.1528 170.815 67.8361C170.458 67.5194 169.845 67.361 168.974 67.361H167.826C167.047 67.361 166.473 67.4369 166.104 67.5887C165.741 67.7338 165.507 67.9878 165.401 68.3507C165.335 68.5486 165.253 68.6938 165.154 68.7862C165.061 68.8719 164.92 68.9148 164.728 68.9148C164.524 68.9148 164.362 68.8587 164.243 68.7466C164.131 68.6278 164.092 68.4695 164.125 68.2715C164.25 67.5194 164.616 66.9718 165.223 66.6287C165.83 66.2856 166.698 66.1141 167.826 66.1141H168.974C170.241 66.1141 171.168 66.411 171.755 67.0048C172.349 67.592 172.646 68.519 172.646 69.7857V75.0705C172.646 75.4862 172.438 75.694 172.022 75.694C171.606 75.694 171.399 75.4862 171.399 75.0705V74.259C170.745 75.2157 169.647 75.694 168.103 75.694H166.995ZM166.995 74.447H168.103C168.697 74.447 169.225 74.3844 169.687 74.259C170.155 74.1337 170.538 73.9258 170.835 73.6355C171.138 73.3452 171.326 72.9527 171.399 72.4578V70.7754H166.995C166.289 70.7754 165.807 70.904 165.55 71.1614C165.292 71.4187 165.164 71.9036 165.164 72.6162C165.164 73.3221 165.292 73.8038 165.55 74.0611C165.807 74.3184 166.289 74.447 166.995 74.447Z" fill="#B39532"/>
<path d="M180.394 75.2289C180.321 75.4004 180.223 75.5225 180.097 75.5951C179.978 75.661 179.83 75.694 179.652 75.694C179.322 75.694 179.088 75.5324 178.949 75.2091L175.376 66.9949C175.212 66.599 175.324 66.3285 175.713 66.1833C176.089 66.0118 176.36 66.1207 176.524 66.5099L180.018 74.5361H179.335L183.086 66.4901C183.172 66.312 183.287 66.1965 183.432 66.1438C183.577 66.0844 183.739 66.0976 183.917 66.1833C184.293 66.3549 184.396 66.632 184.224 67.0147L180.394 75.2289Z" fill="#B39532"/>
<path d="M187.881 71.3989V72.0422C187.881 72.9461 188.056 73.5728 188.406 73.9225C188.762 74.2722 189.395 74.447 190.306 74.447H191.929C192.714 74.447 193.285 74.3547 193.641 74.1699C194.004 73.9852 194.225 73.6652 194.304 73.21C194.35 73.012 194.423 72.8636 194.522 72.7646C194.621 72.6657 194.769 72.6162 194.967 72.6162C195.172 72.6162 195.327 72.6723 195.432 72.7844C195.544 72.89 195.584 73.0483 195.551 73.2594C195.445 74.0842 195.092 74.6978 194.492 75.1002C193.898 75.4961 193.044 75.694 191.929 75.694H190.306C189.046 75.694 188.119 75.3971 187.525 74.8033C186.931 74.2095 186.634 73.2891 186.634 72.0422V69.7857C186.634 68.5058 186.931 67.5722 187.525 66.985C188.119 66.3912 189.046 66.1009 190.306 66.1141H191.929C193.196 66.1141 194.123 66.411 194.71 67.0048C195.304 67.592 195.6 68.519 195.6 69.7857V70.7754C195.6 71.1911 195.393 71.3989 194.977 71.3989H187.881ZM190.306 67.361C189.395 67.3479 188.762 67.5161 188.406 67.8658C188.056 68.2155 187.881 68.8554 187.881 69.7857V70.1519H194.353V69.7857C194.353 68.8686 194.179 68.2353 193.829 67.8856C193.479 67.5359 192.846 67.361 191.929 67.361H190.306Z" fill="#B39532"/>
<path d="M200.327 75.694C199.911 75.694 199.703 75.4862 199.703 75.0705V66.7376C199.703 66.3219 199.911 66.1141 200.327 66.1141C200.742 66.1141 200.95 66.3219 200.95 66.7376V67.4699C201.603 66.566 202.702 66.1141 204.246 66.1141H204.8C206.067 66.1141 206.994 66.411 207.581 67.0048C208.175 67.592 208.472 68.519 208.472 69.7857V75.0705C208.472 75.4862 208.264 75.694 207.848 75.694C207.432 75.694 207.225 75.4862 207.225 75.0705V69.7857C207.225 68.8686 207.046 68.2353 206.69 67.8856C206.341 67.5359 205.71 67.361 204.8 67.361H204.246C203.302 67.361 202.537 67.4996 201.95 67.7767C201.363 68.0538 201.029 68.486 200.95 69.0732V75.0705C200.95 75.4862 200.742 75.694 200.327 75.694Z" fill="#B39532"/>
<path d="M46.8353 26.2717C48.5047 22.2367 55.3943 15.1578 67.9134 17.9682C82.4764 22.0561 83.1365 39.7915 81.6461 47.6692L82.6042 55.0145C81.8166 85.993 36.7884 97.5487 14.9322 76.7314M46.8353 26.2717C45.4514 25.3136 43.2585 22.2477 43.003 18.9263C42.5116 12.539 35.3382 11.5809 34.0608 11.5809C34.593 8.70666 35.0827 2.76648 32.7833 2C19.9023 6.47111 -4.71012 24.3555 3.7211 58.8469C5.59669 66.5198 10.2005 72.2245 14.9322 76.7314M46.8353 26.2717C44.8139 31.1577 40.3203 35.2139 35.9769 35.2139C30.5477 35.2139 28.3122 47.0304 43.003 50.2241C57.6937 50.2241 54.1807 56.9307 54.5001 59.4857C53.2226 63.318 43.6417 73.2183 34.0608 72.2602C24.4798 71.3022 14.8989 68.1085 19.0506 61.7212C23.2024 55.3339 54.5001 81.2025 43.9611 84.7155C27.4969 90.2035 8.83094 70.3441 14.9322 76.7314" stroke="#C78E00" stroke-width="3"/>
<path d="M29.3008 21.227C30.9135 21.1107 33.7414 19.2458 34.4406 24.0588" stroke="#45380C" stroke-width="2" stroke-linecap="round"/>
<path d="M62.2117 35.214C61.6969 41.6604 65.4306 52.0011 73.1488 50.3718C80.8671 48.7425 76.3674 38.0887 74.3084 35.214" stroke="#7F6100" stroke-width="1.8" stroke-linecap="round"/>
<circle cx="33.5" cy="39.5" r="4.5" fill="#594400"/>
<circle cx="54.8195" cy="32.3397" r="2.23555" fill="#45380C"/>
<path d="M24.1605 11.9002C25.6508 10.197 28.8232 6.79041 29.5897 6.79041C30.5478 6.79041 31.1865 12.539 30.8671 13.1777" stroke="#7F6100" stroke-width="1.5"/>
</svg>
